<svg width="52" height="52" viewBox="0 0 52 52" fill="none" xmlns="http://www.w3.org/2000/svg">
<g id="camera">
<g id="Group">
<path id="Vector" d="M48.75 39C48.75 39.862 48.4076 40.6886 47.7981 41.2981C47.1886 41.9076 46.362 42.25 45.5 42.25H6.5C5.63805 42.25 4.8114 41.9076 4.2019 41.2981C3.59241 40.6886 3.25 39.862 3.25 39V19.5C3.25 18.638 3.59241 17.8114 4.2019 17.2019C4.8114 16.5924 5.63805 16.25 6.5 16.25H10.309C12.8935 16.2486 15.3717 15.2211 17.199 13.3932L19.8965 10.7023C20.5043 10.0943 21.3281 9.7519 22.1877 9.75H29.8057C30.6676 9.75018 31.4942 10.0927 32.1035 10.7023L34.7945 13.3932C35.7001 14.2991 36.7752 15.0176 37.9585 15.5078C39.1419 15.9979 40.4102 16.2502 41.691 16.25H45.5C46.362 16.25 47.1886 16.5924 47.7981 17.2019C48.4076 17.8114 48.75 18.638 48.75 19.5V39ZM6.5 13C4.77609 13 3.12279 13.6848 1.90381 14.9038C0.68482 16.1228 0 17.7761 0 19.5L0 39C0 40.7239 0.68482 42.3772 1.90381 43.5962C3.12279 44.8152 4.77609 45.5 6.5 45.5H45.5C47.2239 45.5 48.8772 44.8152 50.0962 43.5962C51.3152 42.3772 52 40.7239 52 39V19.5C52 17.7761 51.3152 16.1228 50.0962 14.9038C48.8772 13.6848 47.2239 13 45.5 13H41.691C39.9672 12.9996 38.3142 12.3146 37.0955 11.0955L34.4045 8.4045C33.1858 7.18543 31.5328 6.50037 29.809 6.5H22.191C20.4672 6.50037 18.8142 7.18543 17.5955 8.4045L14.9045 11.0955C13.6858 12.3146 12.0328 12.9996 10.309 13H6.5Z" fill="#6F7B7B"/>
<path id="Vector_2" d="M26 35.75C23.8451 35.75 21.7785 34.894 20.2548 33.3702C18.731 31.8465 17.875 29.7799 17.875 27.625C17.875 25.4701 18.731 23.4035 20.2548 21.8798C21.7785 20.356 23.8451 19.5 26 19.5C28.1549 19.5 30.2215 20.356 31.7452 21.8798C33.269 23.4035 34.125 25.4701 34.125 27.625C34.125 29.7799 33.269 31.8465 31.7452 33.3702C30.2215 34.894 28.1549 35.75 26 35.75ZM26 39C29.0168 39 31.9101 37.8016 34.0433 35.6683C36.1766 33.5351 37.375 30.6418 37.375 27.625C37.375 24.6082 36.1766 21.7149 34.0433 19.5817C31.9101 17.4484 29.0168 16.25 26 16.25C22.9832 16.25 20.0899 17.4484 17.9567 19.5817C15.8234 21.7149 14.625 24.6082 14.625 27.625C14.625 30.6418 15.8234 33.5351 17.9567 35.6683C20.0899 37.8016 22.9832 39 26 39ZM9.75 21.125C9.75 21.556 9.57879 21.9693 9.27405 22.274C8.9693 22.5788 8.55598 22.75 8.125 22.75C7.69402 22.75 7.2807 22.5788 6.97595 22.274C6.67121 21.9693 6.5 21.556 6.5 21.125C6.5 20.694 6.67121 20.2807 6.97595 19.976C7.2807 19.6712 7.69402 19.5 8.125 19.5C8.55598 19.5 8.9693 19.6712 9.27405 19.976C9.57879 20.2807 9.75 20.694 9.75 21.125Z" fill="#6F7B7B"/>
</g>
</g>
</svg>
